<svg width="24" height="24" viewBox="0 0 24 24" fill="none" xmlns="http://www.w3.org/2000/svg">
<g id="icon_pin_search">
<path id="Vector" d="M12 3.75C9.10875 3.75 6.75 6.10875 6.75 9C6.75 11.4875 8.49652 13.5652 10.8243 14.1C11.0665 14.1557 11.25 14.364 11.25 14.6125V20.5C11.25 20.7761 11.4739 21 11.75 21H12.25C12.5261 21 12.75 20.7761 12.75 20.5V14.6126C12.75 14.364 12.9335 14.1557 13.1757 14.1C15.5035 13.5652 17.25 11.4875 17.25 9C17.25 6.10875 14.8912 3.75 12 3.75ZM12 5.25C14.0798 5.25 15.75 6.92025 15.75 9C15.75 11.0798 14.0798 12.75 12 12.75C9.92025 12.75 8.25 11.0798 8.25 9C8.25 6.92025 9.92025 5.25 12 5.25ZM12 6.5C12 6.22386 11.7744 5.99563 11.5021 6.0416C10.2489 6.25317 9.25317 7.24892 9.0416 8.50215C8.99563 8.77444 9.22386 9 9.5 9H10C10.2761 9 10.4915 8.77015 10.5801 8.50861C10.7284 8.07088 11.0709 7.72845 11.5086 7.58014C11.7701 7.49153 12 7.27614 12 7V6.5Z" fill="black"/>
</g>
</svg>
